PathFileType	4	(X/Y/Z)	44_1_29_p1_0-193.trc
DataRate	CameraRate	NumFrames	NumMarkers	Units	OrigDataRate	OrigDataStartFrame	OrigNumFrames
60.0	60.0	5	27	m	60.0	72	194
Frame#	Time	RHip			RKnee			RAnkle			RBigToe			RSmallToe			RHeel			LHip			LKnee			LAnkle			LBigToe			LSmallToe			LHeel			Neck			Head			Nose			RShoulder			RElbow			RWrist			RThumb			RIndex			RPinky			LShoulder			LElbow			LWrist			LThumb			LIndex			LPinky			
		X1	Y1	Z1	X2	Y2	Z2	X3	Y3	Z3	X4	Y4	Z4	X5	Y5	Z5	X6	Y6	Z6	X7	Y7	Z7	X8	Y8	Z8	X9	Y9	Z9	X10	Y10	Z10	X11	Y11	Z11	X12	Y12	Z12	X13	Y13	Z13	X14	Y14	Z14	X15	Y15	Z15	X16	Y16	Z16	X17	Y17	Z17	X18	Y18	Z18	X19	Y19	Z19	X20	Y20	Z20	X21	Y21	Z21	X22	Y22	Z22	X23	Y23	Z23	X24	Y24	Z24	X25	Y25	Z25	X26	Y26	Z26	X27	Y27	Z27	
72	1.2	0.32170727768195584	0.5141774855059934	1.0525970275995291	0.3459307014439362	0.5684779153666213	1.4598270355844893	0.35781206519315556	0.6597139663864662	1.8577744839757344	0.3071636764206962	0.4965393879909669	1.9030553079037493	0.38442700739288804	0.4864961418623502	1.8887223009042395	0.3296568943088186	0.7839549438898027	1.9312039352878023	0.11766533614920341	0.5398328217546762	1.0767388167566163	0.11859219999811528	0.575770235554024	1.4822874856779857	0.1396968734669469	0.6361256631829111	1.862718322033294	0.14568164373983397	0.4678530960034687	1.8832060679612832	0.0927646895134995	0.5226065400464897	1.8882361618010541	0.16855751368302782	0.7093098624117531	1.9189684208550328	0.21171148028918188	0.4019220035883176	0.49081568160367123	0.21391448590929	0.3275249237709178	0.2540615711380844	0.1954965394437408	0.2658840034736677	0.3815990810719482	0.35422623892362354	0.3993893643919077	0.5742096325989309	0.37445150113585207	0.4110726540111438	0.8272261485312172	0.24480907277022532	0.3932884376405011	1.0111590011283231	0.16893471089498452	0.4253461570078784	1.102431918781091	0.1651456034202599	0.4421105604008543	1.1313563512106835	0.1756882771455338	0.445215742026126	1.1490768502184494	0.05573528601863442	0.41931509385882126	0.563442092080178	0.031224760914891788	0.4717355885751238	0.8462148114529627	0.13669679635106066	0.35923708791762066	0.9857486996738223	0.23026063348867218	0.34895860955057456	1.0474798446445528	0.2326287104869234	0.3542393032670133	1.0834982115910134	0.17154862997191975	0.4310931431716933	1.153612792874641
73	1.2166666666666666	0.3217012132637881	0.5141975508529166	1.0524374595550756	0.3466052824697934	0.5673119796005387	1.4559458200764246	0.35651580396864396	0.6569806863250403	1.8517602973635343	0.30699485748852884	0.4960698803896278	1.9028128345181932	0.3803803831228972	0.4820013258093847	1.882567427989749	0.3248271424963781	0.7807636477277974	1.9300306997775387	0.11371723676465637	0.5278888759789284	1.0709241529215927	0.1196611088926142	0.5745620240774634	1.4772066801358894	0.139783637575706	0.6361160438582145	1.862083357639527	0.14567079611907996	0.4676559200406204	1.8830343121390207	0.09276861095778983	0.5225385274649815	1.8880726089127668	0.16863366340813293	0.7100142048973718	1.9190370590979693	0.21169540184258845	0.4019189358817343	0.49078906648481146	0.21388019488990342	0.3275596450718607	0.25403576963381747	0.19543889422394742	0.26603642380284687	0.381686034256092	0.3542216254665129	0.39936254358462175	0.5741876531886421	0.3744471263870105	0.4110319654569296	0.8271352256129028	0.24481543064339462	0.39308535974167946	1.0111587441574834	0.16903504309073808	0.42488492001536604	1.1030751884144148	0.1645827065674757	0.4428015463075715	1.1350504071525118	0.17566124529379148	0.4451590372169017	1.1490550542369469	0.05314284599375855	0.4077310049121731	0.5629342440675447	0.031136198413964557	0.4714524682783496	0.8462252654109738	0.14100019795280597	0.3625025030803279	0.9862076260311176	0.2302575865096036	0.3486957028662842	1.0473840966331953	0.2324125790222486	0.3539638521734367	1.0835187118203224	0.17187218452110392	0.4300336154634915	1.1571086907265826
74	1.2333333333333334	0.3217002834661968	0.5142067775725582	1.0527598278814754	0.3459439521553956	0.5686612040832483	1.4599374650300716	0.3566419174576933	0.6573494601930546	1.8518558820769757	0.3117725622276671	0.49969578093261635	1.9043593704991868	0.384486172399149	0.4866980334790545	1.8888648091307805	0.3295886326843163	0.783879288050648	1.9310643752028638	0.11765271459520697	0.5396737920252933	1.0768322664117131	0.11816593253401256	0.571901738176321	1.4804180343560396	0.139719844110238	0.6361859277476124	1.862493209791317	0.14844799739013753	0.4801898020678546	1.8892725279108027	0.0927826051145076	0.5225866972742274	1.888355735922652	0.1685729404213396	0.7098674948131141	1.9191533356591286	0.20754262877229204	0.4151084763483683	0.4914365907294875	0.2171358983778746	0.3376793340698144	0.25335977686280303	0.19540888947084473	0.2660334414324444	0.3817180585360691	0.3542228144467531	0.399317716978684	0.5741396028534882	0.374148760001955	0.4117994664145149	0.8311071068013882	0.24478205823036442	0.39321573753012407	1.0111762011647258	0.17345364561433926	0.4282811670854231	1.1076623300218928	0.1646130435977406	0.4430446351818778	1.1348686819355471	0.17572782194452524	0.4450173750073562	1.1489978019798721	0.053421097134335446	0.40714716426829434	0.5596391750962655	0.03120664123725222	0.4688939091414302	0.838604207182078	0.14105320091964266	0.36240664022302543	0.9861905129901807	0.23048585943609853	0.3481737018407482	1.0471079151800806	0.2329777149953228	0.35371411985103257	1.0832583641179379	0.17163089240939788	0.43079620462253254	1.1533493234554248
75	1.25	0.3216972994963869	0.514105749326976	1.0527706174711813	0.3459373298901474	0.5684749909544641	1.4598991900467688	0.35776986543716877	0.6595535622227418	1.8576833194752325	0.31177292994589534	0.4997022366751597	1.9044295271807126	0.3844500185756636	0.4866211273577329	1.8888316989515985	0.3295575324292528	0.7837095031095643	1.931129918750715	0.1139160766056748	0.5382238256342675	1.076900117524977	0.11902899675413363	0.5743230362322995	1.486238314029911	0.14429760369939246	0.6388761739616292	1.8631457921564578	0.15296423945235288	0.46557068628371195	1.8815932180670867	0.09282191271779354	0.5225427610668839	1.8883257768718102	0.16849912637027392	0.7093911401221653	1.918883260153389	0.21165541863618914	0.401842156764911	0.4907448835172918	0.21387714885057016	0.3276708000888661	0.2540291274047245	0.19149541431474973	0.26426973768181466	0.3818838767978204	0.35420423274020807	0.39927588882091375	0.5740996228852221	0.3741337056724744	0.411778002583472	0.8311592437223891	0.24481397469074614	0.3934624890799955	1.0112902024227932	0.17266540454551849	0.4266658359912144	1.1020880693273056	0.16418121448346965	0.4444844043496032	1.1316316102201416	0.17567046105673298	0.445132109541067	1.1490537627768203	0.05339864900361988	0.40708005112340956	0.5596247516585451	0.031289774691123984	0.4689520751256253	0.8386302023944616	0.14100039917654428	0.36248386411909145	0.986100490635151	0.23011645947405732	0.34810403640320164	1.0469872194320748	0.23276770861543958	0.3538558607497874	1.0832548801843247	0.17174654313464416	0.430714053029179	1.1530420143961218
76	1.2666666666666666	0.32173552279286843	0.5139248431954692	1.053021337057371	0.34637079279460664	0.5668239847368138	1.4635352351231963	0.3578083023914414	0.6593863962684183	1.857560536601339	0.30709356191080533	0.4967501488205064	1.903222635470483	0.3843517415506673	0.4862174080300293	1.8884987591172975	0.33402116025587686	0.7658201702810309	1.9223771493272472	0.11383899227301994	0.5381094471779676	1.077174472603177	0.11874832738691722	0.5739823668044927	1.486538538819296	0.13983282428464622	0.6359906194557701	1.861827514016733	0.14855033305187249	0.4802068895677155	1.8890227425558317	0.09278997909819275	0.5227247519690472	1.8878959216700568	0.16944356981596517	0.7075934275295434	1.9139833797378947	0.20750768597234823	0.41505966204706035	0.49136045325389416	0.21387766006173867	0.32772678257013216	0.25400143642921585	0.1914952063722238	0.2641936295259331	0.3818470466635831	0.3542038769532843	0.3993007290155449	0.57406540803232	0.3744927131228892	0.4110218192409262	0.8271266348463325	0.24481482433062424	0.3934772103341638	1.0112311636571907	0.17231915124659852	0.42625856406507184	1.1058115938059276	0.16415525611285997	0.44414919519513973	1.1317926171089325	0.17554028550775816	0.4454434800712317	1.1490773139566528	0.0562958597475951	0.41770505447414963	0.5638672352795234	0.030765398542530534	0.4697005534704026	0.8422152923234356	0.1410032092954977	0.36240557540858387	0.9861311175921393	0.22992668568384544	0.34808551849606323	1.046934864666674	0.2319855554498984	0.351893363794852	1.0789060209660313	0.17159388750618823	0.4310480256055768	1.1533844475527226
